<svg width="960" height="600" viewBox="0 0 960 600" fill="none" xmlns="http://www.w3.org/2000/svg">
<mask id="mask0_506_1213" style="mask-type:luminance" maskUnits="userSpaceOnUse" x="0" y="0" width="960" height="600">
<path d="M960 600H0V0H960V600Z" fill="white"/>
</mask>
<g mask="url(#mask0_506_1213)">
<path d="M-71.3289 677.09H1031.33V-77.089H-71.3289V677.09ZM1032.76 678.65H-72.7578V-78.6492H1032.76V678.65Z" fill="#D9D9D9"/>
<path d="M1032.05 565.289H-72.043V563.725H1032.05V565.289Z" fill="#D9D9D9"/>
<path d="M1032.05 527.502H-72.043V525.938H1032.05V527.502Z" fill="#D9D9D9"/>
<path d="M1032.05 489.715H-72.043V488.151H1032.05V489.715Z" fill="#D9D9D9"/>
<path d="M1032.05 451.928H-72.043V450.368H1032.05V451.928Z" fill="#D9D9D9"/>
<path d="M1032.05 414.141H-72.043V412.577H1032.05V414.141Z" fill="#D9D9D9"/>
<path d="M1032.05 376.354H-72.043V374.794H1032.05V376.354Z" fill="#D9D9D9"/>
<path d="M1032.05 338.568H-72.043V337.005H1032.05V338.568Z" fill="#D9D9D9"/>
<path d="M1032.05 300.781H-72.043V299.219H1032.05V300.781Z" fill="#D9D9D9"/>
<path d="M1032.05 262.995H-72.043V261.432H1032.05V262.995Z" fill="#D9D9D9"/>
<path d="M1032.05 225.206H-72.043V223.642H1032.05V225.206Z" fill="#D9D9D9"/>
<path d="M1032.05 187.419H-72.043V185.855H1032.05V187.419Z" fill="#D9D9D9"/>
<path d="M1032.05 149.632H-72.043V148.068H1032.05V149.632Z" fill="#D9D9D9"/>
<path d="M1032.05 111.846H-72.043V110.285H1032.05V111.846Z" fill="#D9D9D9"/>
<path d="M1032.05 74.0586H-72.043V72.4983H1032.05V74.0586Z" fill="#D9D9D9"/>
<path d="M1032.05 36.2717H-72.043V34.7114H1032.05V36.2717Z" fill="#D9D9D9"/>
<path d="M932.383 677.868H930.953V-77.8711H932.383V677.868Z" fill="#D9D9D9"/>
<path d="M898.926 677.868H897.496V-77.8711H898.926V677.868Z" fill="#D9D9D9"/>
<path d="M865.469 677.868H864.039V-77.8711H865.469V677.868Z" fill="#D9D9D9"/>
<path d="M832.012 677.868H830.582V-77.8711H832.012V677.868Z" fill="#D9D9D9"/>
<path d="M798.559 677.868H797.129V-77.8711H798.559V677.868Z" fill="#D9D9D9"/>
<path d="M765.098 677.868H763.668V-77.8711H765.098V677.868Z" fill="#D9D9D9"/>
<path d="M731.641 677.868H730.211V-77.8711H731.641V677.868Z" fill="#D9D9D9"/>
<path d="M698.188 677.868H696.758V-77.8711H698.188V677.868Z" fill="#D9D9D9"/>
<path d="M664.735 677.868H663.305V-77.8711H664.735V677.868Z" fill="#D9D9D9"/>
<path d="M631.274 677.868H629.848V-77.8711H631.274V677.868Z" fill="#D9D9D9"/>
<path d="M597.817 677.868H596.391V-77.8711H597.817V677.868Z" fill="#D9D9D9"/>
<path d="M564.36 677.868H562.934V-77.8711H564.36V677.868Z" fill="#D9D9D9"/>
<path d="M530.903 677.868H529.473V-77.8711H530.903V677.868Z" fill="#D9D9D9"/>
<path d="M497.442 677.868H496.012V-77.8711H497.442V677.868Z" fill="#D9D9D9"/>
<path d="M463.989 677.868H462.559V-77.8711H463.989V677.868Z" fill="#D9D9D9"/>
<path d="M430.532 677.868H429.102V-77.8711H430.532V677.868Z" fill="#D9D9D9"/>
<path d="M397.074 677.868H395.645V-77.8711H397.074V677.868Z" fill="#D9D9D9"/>
<path d="M363.617 677.868H362.188V-77.8711H363.617V677.868Z" fill="#D9D9D9"/>
<path d="M330.155 677.868H328.727V-77.8711H330.155V677.868Z" fill="#D9D9D9"/>
<path d="M296.702 677.868H295.273V-77.8711H296.702V677.868Z" fill="#D9D9D9"/>
<path d="M263.241 677.868H261.812V-77.8711H263.241V677.868Z" fill="#D9D9D9"/>
<path d="M229.784 677.868H228.355V-77.8711H229.784V677.868Z" fill="#D9D9D9"/>
<path d="M196.327 677.868H194.898V-77.8711H196.327V677.868Z" fill="#D9D9D9"/>
<path d="M162.874 677.868H161.445V-77.8711H162.874V677.868Z" fill="#D9D9D9"/>
<path d="M129.417 677.868H127.988V-77.8711H129.417V677.868Z" fill="#D9D9D9"/>
<path d="M95.9598 677.868H94.5312V-77.8711H95.9598V677.868Z" fill="#D9D9D9"/>
<path d="M62.5028 677.868H61.0742V-77.8711H62.5028V677.868Z" fill="#D9D9D9"/>
<path d="M29.0457 677.868H27.6172V-77.8711H29.0457V677.868Z" fill="#D9D9D9"/>
</g>
</svg>
