<svg width="1920" height="1080" viewBox="0 0 1920 1080" fill="none" xmlns="http://www.w3.org/2000/svg">
<mask id="mask0_294_1334" style="mask-type:luminance" maskUnits="userSpaceOnUse" x="-41" y="-28" width="2138" height="1222">
<path d="M2096.42 1193.67H-41V-28H2096.42V1193.67Z" fill="white"/>
</mask>
<g mask="url(#mask0_294_1334)">
<path d="M-199.811 1350.64H2255.24V-184.963H-199.811V1350.64ZM2258.41 1353.81H-202.992V-188.14H2258.41V1353.81Z" fill="#C3C3C3"/>
<path d="M2256.83 1046.06H-201.402V1042.87H2256.83V1046.06Z" fill="#C3C3C3"/>
<path d="M2256.83 969.118H-201.402V965.934H2256.83V969.118Z" fill="#C3C3C3"/>
<path d="M2256.83 892.18H-201.402V889.003H2256.83V892.18Z" fill="#C3C3C3"/>
<path d="M2256.83 815.241H-201.402V812.056H2256.83V815.241Z" fill="#C3C3C3"/>
<path d="M2256.83 738.302H-201.402V735.125H2256.83V738.302Z" fill="#C3C3C3"/>
<path d="M2256.83 661.365H-201.402V658.183H2256.83V661.365Z" fill="#C3C3C3"/>
<path d="M2256.83 584.426H-201.402V581.245H2256.83V584.426Z" fill="#C3C3C3"/>
<path d="M2256.83 507.488H-201.402V504.307H2256.83V507.488Z" fill="#C3C3C3"/>
<path d="M2256.83 430.547H-201.402V427.363H2256.83V430.547Z" fill="#C3C3C3"/>
<path d="M2256.83 353.608H-201.402V350.424H2256.83V353.608Z" fill="#C3C3C3"/>
<path d="M2256.83 276.67H-201.402V273.485H2256.83V276.67Z" fill="#C3C3C3"/>
<path d="M2256.83 199.731H-201.402V196.554H2256.83V199.731Z" fill="#C3C3C3"/>
<path d="M2256.83 122.792H-201.402V119.615H2256.83V122.792Z" fill="#C3C3C3"/>
<path d="M2256.83 45.8535H-201.402V42.6766H2256.83V45.8535Z" fill="#C3C3C3"/>
<path d="M1885.96 1352.22H1882.77V-186.555H1885.96V1352.22Z" fill="#C3C3C3"/>
<path d="M1811.47 1352.22H1808.28V-186.555H1811.47V1352.22Z" fill="#C3C3C3"/>
<path d="M1736.98 1352.22H1733.79V-186.555H1736.98V1352.22Z" fill="#C3C3C3"/>
<path d="M1662.48 1352.22H1659.3V-186.555H1662.48V1352.22Z" fill="#C3C3C3"/>
<path d="M1587.99 1352.22H1584.81V-186.555H1587.99V1352.22Z" fill="#C3C3C3"/>
<path d="M1513.5 1352.22H1510.32V-186.555H1513.5V1352.22Z" fill="#C3C3C3"/>
<path d="M1439.01 1352.22H1435.83V-186.555H1439.01V1352.22Z" fill="#C3C3C3"/>
<path d="M1364.51 1352.22H1361.34V-186.555H1364.51V1352.22Z" fill="#C3C3C3"/>
<path d="M1290.02 1352.22H1286.85V-186.555H1290.02V1352.22Z" fill="#C3C3C3"/>
<path d="M1215.53 1352.22H1212.36V-186.555H1215.53V1352.22Z" fill="#C3C3C3"/>
<path d="M1141.04 1352.22H1137.86V-186.555H1141.04V1352.22Z" fill="#C3C3C3"/>
<path d="M1066.55 1352.22H1063.37V-186.555H1066.55V1352.22Z" fill="#C3C3C3"/>
<path d="M992.057 1352.22H988.873V-186.555H992.057V1352.22Z" fill="#C3C3C3"/>
<path d="M917.567 1352.22H914.383V-186.555H917.567V1352.22Z" fill="#C3C3C3"/>
<path d="M843.076 1352.22H839.893V-186.555H843.076V1352.22Z" fill="#C3C3C3"/>
<path d="M768.584 1352.22H765.4V-186.555H768.584V1352.22Z" fill="#C3C3C3"/>
<path d="M694.088 1352.22H690.908V-186.555H694.088V1352.22Z" fill="#C3C3C3"/>
<path d="M619.598 1352.22H616.416V-186.555H619.598V1352.22Z" fill="#C3C3C3"/>
<path d="M545.106 1352.22H541.926V-186.555H545.106V1352.22Z" fill="#C3C3C3"/>
<path d="M470.615 1352.22H467.434V-186.555H470.615V1352.22Z" fill="#C3C3C3"/>
<path d="M396.121 1352.22H392.941V-186.555H396.121V1352.22Z" fill="#C3C3C3"/>
<path d="M321.632 1352.22H318.451V-186.555H321.632V1352.22Z" fill="#C3C3C3"/>
<path d="M247.14 1352.22H243.959V-186.555H247.14V1352.22Z" fill="#C3C3C3"/>
<path d="M172.648 1352.22H169.467V-186.555H172.648V1352.22Z" fill="#C3C3C3"/>
<path d="M98.1573 1352.22H94.9766V-186.555H98.1573V1352.22Z" fill="#C3C3C3"/>
<path d="M23.663 1352.22H20.4824V-186.555H23.663V1352.22Z" fill="#C3C3C3"/>
</g>
</svg>
