<svg width="192" height="187" viewBox="0 0 192 187" fill="none" xmlns="http://www.w3.org/2000/svg">
<rect x="24.6201" y="144.727" width="79.9424" height="14.3646" rx="7.18232" fill="#FF8C73"/>
<path d="M52.7264 68.0986C59.6068 76.2983 69.0925 76.6876 78.712 75.826C66.5283 86.0494 54.3429 96.2741 42.1575 106.499C36.855 110.948 28.6864 115.051 25.8142 121.718C22.8975 128.481 27.8372 136.393 34.794 138.183C42.8932 140.269 50.0611 132.552 55.4409 127.85C62.0664 122.058 68.5187 116.084 75.2603 110.427C74.1044 119.272 87.1682 126.226 94.0273 121.601C92.6383 132.438 105.682 134.921 112.466 130.662C112.01 134.342 119.349 137.343 122.015 137.607C127.177 138.122 132.113 135.503 136.147 132.72C144.236 127.136 150.595 119.002 157.367 111.916C164.201 104.768 171.143 97.0213 175.624 88.066C180.07 79.1754 177.048 71.0322 171.603 62.8228C165.063 52.9632 157 44.5488 147.481 37.5885C136.185 29.3263 125.512 32.7944 113.837 37.4882C101.151 42.5891 88.2898 47.2558 74.8948 50.3644C66.6844 52.2701 40.5873 53.6318 52.7264 68.0986Z" fill="#2C2C2C"/>
</svg>
